<svg width="40" height="40" viewBox="0 0 40 40" xmlns="http://www.w3.org/2000/svg" fill="none"><path d="M38.4 12.2C37.3 9.7 35.9 7.6 34.1 5.8 32.3 4 30.2 2.6 27.8 1.6 25.3 0.5 22.7 0 20 0 17.3 0 14.7 0.5 12.2 1.6 9.8 2.6 7.7 4 5.9 5.8 4.1 7.6 2.7 9.7 1.6 12.2 0.5 14.7 0 17.3 0 20 0 22.7 0.5 25.3 1.6 27.8 2.7 30.2 4.1 32.3 5.9 34.1 7.7 35.9 9.8 37.3 12.2 38.4 14.7 39.5 17.3 40 20 40 22.7 40 25.3 39.5 27.8 38.4 30.2 37.3 32.3 35.9 34.1 34.1 35.9 32.3 37.3 30.2 38.4 27.8 39.5 25.3 40 22.7 40 20 40 17.3 39.5 14.7 38.4 12.2ZM30.6 23H23V30.6H17V23H9.4V17H17V9.4H23V17H30.6V23Z" fill="#C20000"/></svg>